<svg version="1.0" xmlns="http://www.w3.org/2000/svg"
 width="633.000000pt" height="519.000000pt" viewBox="0 0 633.000000 519.000000"
 preserveAspectRatio="xMidYMid meet">
<g transform="translate(0.000000,519.000000) scale(0.100000,-0.100000)"
fill="#000000" stroke="none">
<path d="M2591 5149 c-316 -17 -616 -56 -833 -109 -263 -64 -560 -200 -766
-352 -167 -122 -257 -205 -368 -338 -139 -165 -226 -329 -304 -565 -69 -213
-80 -286 -80 -557 0 -282 -12 -338 -147 -688 -74 -191 -87 -275 -57 -362 23
-68 72 -118 164 -168 82 -44 122 -83 133 -130 4 -14 2 -64 -4 -112 -7 -60 -7
-104 0 -143 11 -57 56 -158 92 -203 14 -19 19 -41 19 -91 1 -201 94 -367 236
-420 145 -55 226 -50 537 31 185 48 212 52 317 53 113 0 116 -1 193 -38 237
-116 417 -414 486 -807 l17 -95 39 70 c121 216 255 636 317 995 20 115 17 568
-5 690 -31 178 -82 305 -183 456 -64 95 -241 273 -222 223 7 -19 -33 -205 -61
-284 -69 -193 -209 -386 -437 -604 -325 -311 -729 -473 -869 -349 -51 44 -60
91 -41 196 19 101 9 157 -35 201 -28 29 -88 48 -112 36 -6 -4 -2 2 10 12 62
53 81 148 43 211 -23 37 -75 72 -108 72 -22 0 -22 1 -7 30 21 41 19 106 -5
140 -25 36 -88 60 -162 63 -32 1 -58 3 -58 5 0 2 25 58 56 125 65 141 89 202
149 384 53 162 91 235 153 296 52 50 248 197 266 198 6 0 -16 7 -49 14 -42 10
-94 12 -175 8 l-115 -6 -14 26 c-20 37 -8 116 39 261 49 150 91 239 169 354
191 284 462 515 796 676 235 114 419 175 700 231 352 70 687 95 1013 77 649
-38 1150 -173 1542 -416 137 -86 164 -105 295 -218 255 -218 429 -489 521
-811 35 -122 35 -128 19 -153 -16 -25 -17 -25 -143 -22 -88 2 -146 -2 -189
-12 l-61 -15 114 -68 c122 -73 213 -154 256 -227 14 -25 55 -128 91 -230 75
-211 104 -286 154 -383 19 -38 33 -70 31 -72 -2 -1 -30 -7 -62 -13 -73 -15
-114 -38 -143 -82 -26 -38 -30 -97 -8 -126 21 -27 19 -31 -17 -38 -36 -7 -64
-28 -91 -66 -36 -52 -11 -175 45 -214 22 -16 21 -16 -23 -16 -37 0 -52 -6 -73
-26 -42 -43 -51 -95 -32 -189 20 -99 20 -124 1 -173 -34 -85 -158 -106 -329
-57 -210 61 -506 255 -723 476 -167 169 -286 333 -360 492 -21 44 -50 106 -65
137 l-26 55 -1 -35 c-1 -37 -53 -185 -91 -260 -12 -25 -53 -90 -91 -146 -123
-181 -139 -242 -139 -530 0 -406 131 -894 339 -1269 66 -119 62 -120 80 10 25
173 118 418 208 551 95 140 248 251 379 275 78 14 146 5 374 -52 254 -63 348
-76 432 -59 214 41 348 213 348 446 0 49 5 77 14 86 26 26 75 123 85 168 7 32
7 85 -1 178 -15 163 -13 168 104 235 102 59 141 96 175 165 23 48 25 61 21
135 -6 85 -5 83 -118 352 -23 55 -55 150 -72 210 -30 106 -31 120 -38 385 -9
317 -20 391 -95 592 -65 177 -153 326 -279 478 -167 200 -343 351 -563 483
-144 86 -191 109 -335 163 -288 107 -634 167 -1124 194 -205 11 -850 11 -1063
-1z"/>
<path d="M3060 4493 c-90 -5 -267 -25 -344 -39 -418 -79 -810 -367 -1100 -811
-142 -217 -261 -539 -301 -813 -18 -122 -31 -506 -16 -475 5 11 10 36 10 55 5
186 173 593 333 805 278 370 697 629 1143 706 160 28 416 30 565 5 388 -64
709 -230 980 -505 249 -252 419 -587 501 -985 10 -48 20 -91 23 -94 4 -3 6 84
6 194 0 279 -23 426 -112 707 -87 279 -248 547 -453 753 -194 196 -359 305
-585 389 -207 76 -456 118 -650 108z"/>
<path d="M2785 3470 c-192 -44 -336 -121 -465 -250 -132 -131 -205 -258 -250
-435 -21 -81 -27 -233 -14 -342 7 -54 24 -74 24 -28 0 36 45 139 90 204 21 31
69 86 106 122 123 117 241 184 411 235 120 35 287 38 417 6 284 -70 462 -222
560 -474 74 -192 75 -321 1 -601 -25 -98 -49 -186 -52 -195 -3 -9 7 3 21 27
15 24 51 76 80 115 81 108 140 236 190 413 54 189 53 325 -5 503 -73 221 -198
394 -389 534 -207 152 -495 218 -725 166z"/>
<path d="M2580 2758 c0 -3 27 -22 60 -42 229 -142 361 -368 420 -721 37 -223
-3 -541 -104 -830 -19 -55 -34 -101 -32 -102 8 -9 175 163 228 234 205 278
292 532 267 782 -21 213 -78 340 -209 471 -144 144 -273 199 -492 207 -76 3
-138 4 -138 1z"/>
</g>
</svg>
