<svg version="1.0" xmlns="http://www.w3.org/2000/svg"
 width="300.000000pt" height="239.000000pt" viewBox="0 0 300.000000 239.000000"
 preserveAspectRatio="xMidYMid meet">
<metadata>
Created by potrace 1.10, written by Peter Selinger 2001-2011
</metadata>
<g transform="translate(0.000000,239.000000) scale(0.100000,-0.100000)"
fill="#000000" stroke="none">
<path d="M398 2175 c19 -24 22 -36 16 -70 -4 -22 -6 -52 -5 -67 1 -16 -4 -28
-10 -28 -14 0 -96 59 -170 122 -62 53 -69 56 -69 29 0 -12 15 -29 38 -42 39
-25 230 -183 340 -283 37 -33 75 -68 87 -78 11 -10 31 -27 45 -38 21 -16 23
-21 10 -29 -12 -8 -11 -11 5 -17 11 -5 26 -14 33 -21 11 -11 11 -13 0 -13 -22
0 -19 -36 3 -37 12 -1 17 3 13 9 -5 7 0 9 14 6 16 -5 19 -2 14 11 -5 14 -4 14
11 2 24 -19 21 -29 -12 -36 -23 -5 -28 -10 -23 -27 3 -14 1 -19 -6 -14 -7 4
-12 2 -12 -3 0 -6 -6 -11 -14 -11 -9 0 -14 9 -13 20 1 11 8 20 16 20 11 0 10
4 -5 14 -17 13 -20 13 -29 -7 -13 -31 -27 -38 -44 -24 -8 7 -17 11 -20 10 -3
-2 -6 2 -6 9 0 6 -9 12 -21 13 -22 2 -33 9 -88 63 -19 17 -37 32 -41 32 -3 0
-43 29 -88 64 -79 61 -137 96 -184 110 -18 6 -25 1 -37 -23 -18 -34 -21 -84
-6 -111 5 -10 67 -63 137 -119 71 -55 171 -135 224 -178 52 -43 188 -154 302
-247 114 -93 206 -172 205 -177 -2 -4 -24 -24 -49 -46 -26 -21 -109 -94 -185
-162 -77 -69 -215 -192 -309 -275 -252 -224 -325 -296 -325 -322 0 -30 30 -63
60 -65 67 -5 64 -8 277 181 65 58 147 130 182 160 35 30 157 137 270 237 113
101 212 183 220 183 7 0 92 -66 187 -146 96 -80 178 -144 183 -142 8 3 95 75
295 245 59 50 62 51 81 34 11 -10 101 -90 201 -177 205 -181 537 -476 544
-484 33 -38 102 -80 130 -80 50 0 100 28 100 55 0 25 -57 79 -589 554 -265
236 -273 244 -253 260 52 41 562 458 689 564 93 77 145 127 149 143 6 25 -2
134 -11 142 -17 17 -104 -47 -510 -378 -242 -197 -749 -606 -802 -647 l-32
-24 -123 103 c-68 57 -151 125 -185 151 -35 27 -63 52 -63 58 0 5 -5 9 -11 9
-14 0 -67 56 -71 76 -2 8 -6 15 -11 14 -14 -1 -62 29 -101 64 -22 20 -46 36
-53 36 -7 0 -13 4 -13 10 0 5 7 7 15 4 8 -4 23 -3 33 1 16 7 15 8 -3 15 -15 5
-9 8 20 7 22 0 34 -2 28 -4 -7 -3 -13 -9 -13 -14 0 -6 4 -7 10 -4 6 3 7 -1 4
-9 -3 -9 -11 -16 -18 -17 -20 -1 58 -27 85 -28 15 -1 32 6 39 14 24 29 49 16
155 -80 131 -119 165 -139 246 -143 62 -4 77 -1 132 26 83 41 149 98 145 126
-2 13 2 20 10 18 6 -1 12 3 12 9 0 19 102 110 117 105 8 -3 12 -2 9 3 -5 7 76
83 235 221 35 30 114 100 175 155 61 55 146 131 189 170 54 47 74 71 63 73 -9
2 -24 14 -33 28 -9 15 -21 22 -28 17 -9 -5 -9 -4 0 8 7 9 8 20 3 29 -5 8 -6
19 -2 24 21 35 -273 -205 -497 -404 -165 -148 -334 -291 -377 -321 -23 -16
-62 -34 -87 -41 -86 -22 -125 3 -436 281 -89 79 -161 148 -161 153 0 5 -4 7
-9 4 -4 -3 -16 3 -26 14 -10 11 -23 20 -29 20 -6 0 -51 35 -101 76 -102 87
-310 255 -370 299 l-40 30 23 -30z m413 -612 c13 -16 12 -17 -3 -4 -10 7 -18
15 -18 17 0 8 8 3 21 -13z m44 7 c3 -5 4 -10 1 -10 -3 0 -8 5 -11 10 -3 6 -4
10 -1 10 3 0 8 -4 11 -10z m42 -57 c-4 -3 -10 -3 -14 0 -3 4 0 7 7 7 7 0 10
-3 7 -7z m98 -73 c28 -28 50 -54 50 -58 0 -4 5 -6 11 -4 22 5 33 -22 16 -37
-14 -13 -15 -12 -10 7 4 12 2 22 -3 22 -5 0 -9 -4 -9 -10 0 -5 -13 -1 -30 8
-19 11 -30 25 -30 40 0 12 -6 22 -13 22 -8 0 -19 -10 -25 -22 -6 -13 -11 -17
-11 -10 -1 7 -7 10 -13 7 -7 -4 -2 2 11 13 16 13 20 21 12 26 -6 4 -9 11 -6
16 3 4 -3 6 -14 3 -22 -5 -35 11 -27 33 8 21 29 7 91 -56z m-240 40 c3 -5 2
-10 -4 -10 -5 0 -13 5 -16 10 -3 6 -2 10 4 10 5 0 13 -4 16 -10z m132 -12 c-3
-8 -6 -5 -6 6 -1 11 2 17 5 13 3 -3 4 -12 1 -19z m-67 -53 c-1 -4 4 -12 12
-16 7 -5 9 -9 3 -9 -12 1 -44 28 -65 55 -14 18 -13 18 18 -1 19 -12 33 -25 32
-29z m85 -25 c3 -5 -1 -10 -9 -10 -9 0 -16 -4 -16 -10 0 -5 -8 -10 -17 -10
-15 0 -14 2 3 19 22 23 30 25 39 11z m62 -7 c-4 -3 -7 0 -7 7 0 7 3 10 7 7 3
-4 3 -10 0 -14z"/>
<path d="M1016 1265 c4 -8 7 -15 9 -15 2 0 5 7 9 15 3 9 0 15 -9 15 -9 0 -12
-6 -9 -15z"/>
</g>
</svg>
