<svg version="1.0" xmlns="http://www.w3.org/2000/svg"
     width="100%" height="100%" viewBox="0 0 990.000000 735.000000"
     preserveAspectRatio="xMidYMid meet">
    <g transform="translate(0.000000,735.000000) scale(0.100000,-0.100000)"
       fill="#000000"
       stroke="none">
        <path d="M4645 6946 c-293 -66 -523 -218 -622 -411 -59 -116 -88 -248 -80
-373 6 -102 7 -108 94 -349 51 -145 54 -157 54 -250 0 -122 -24 -237 -69 -333
-36 -77 -55 -98 -264 -298 -86 -82 -87 -83 -115 -69 -63 33 -171 58 -273 64
-132 7 -243 -17 -375 -81 -195 -95 -383 -302 -447 -493 -13 -38 -24 -70 -26
-72 -1 -3 -15 9 -31 26 -92 101 -372 161 -545 117 -33 -8 -99 -34 -146 -57
-47 -23 -87 -43 -91 -45 -3 -1 -5 71 -5 160 1 125 -4 182 -18 243 -34 147 -96
272 -179 362 -28 30 -29 35 -23 88 13 116 63 263 138 408 45 86 60 100 130
118 43 12 52 11 115 -14 110 -42 144 -48 203 -37 29 5 90 10 135 10 97 0 140
12 177 50 20 20 41 30 79 35 41 6 60 15 89 44 21 20 53 45 71 56 48 28 75 87
62 135 -5 21 -52 117 -104 215 -181 342 -221 357 -610 226 -459 -154 -604
-213 -698 -285 -106 -82 -178 -198 -232 -375 -30 -98 -84 -221 -117 -269 -36
-52 -210 -398 -282 -562 -105 -239 -186 -493 -210 -655 -7 -44 -18 -109 -26
-145 -8 -36 -20 -105 -28 -155 -12 -79 -28 -154 -67 -324 -20 -89 -23 -232 -5
-301 31 -121 100 -234 175 -283 92 -61 294 -105 587 -127 216 -17 328 -44 514
-125 115 -50 185 -69 326 -90 257 -38 569 12 796 126 32 16 61 29 65 29 4 0
16 -19 27 -41 29 -63 160 -235 250 -327 98 -101 301 -255 434 -329 53 -29 179
-95 280 -146 l183 -92 -8 -65 c-4 -36 -8 -117 -7 -180 1 -105 4 -121 33 -190
47 -113 132 -198 351 -354 371 -265 814 -447 1330 -547 572 -110 1223 -95
1643 38 59 18 62 33 5 22 -24 -4 -150 -11 -281 -15 -219 -6 -239 -6 -257 11
-26 24 -57 109 -81 224 -23 113 -74 292 -93 329 -8 15 -44 67 -80 115 l-66 88
11 102 c15 139 0 265 -52 421 l-39 119 15 100 c8 55 15 113 15 127 0 20 10 34
39 54 21 15 53 46 72 69 18 23 92 103 164 177 228 237 352 385 399 478 13 26
32 82 42 125 10 42 21 77 24 77 4 0 40 -11 80 -25 174 -59 554 -85 727 -49
181 37 362 113 516 217 120 80 236 127 419 167 48 11 125 31 170 44 336 99
416 158 483 357 28 82 35 202 16 294 -10 54 -164 561 -207 685 -34 97 -158
352 -224 460 -132 216 -326 475 -461 616 -120 125 -192 217 -221 284 -31 72
-142 231 -195 281 -84 79 -174 136 -248 158 -38 11 -162 35 -275 51 -113 17
-284 44 -380 61 -254 43 -323 38 -393 -29 -43 -41 -64 -80 -112 -212 -87 -236
-111 -355 -82 -406 30 -53 118 -101 205 -110 31 -4 68 -15 82 -24 38 -26 100
-31 202 -19 51 7 136 13 188 13 102 2 93 -2 253 90 l47 28 45 -26 c35 -21 63
-54 133 -160 89 -132 119 -195 150 -312 l16 -62 -32 -59 c-83 -156 -84 -405
-3 -648 11 -33 19 -61 17 -62 -2 -2 -50 6 -107 18 -136 28 -271 23 -374 -14
-70 -25 -185 -85 -217 -114 -15 -14 -18 -11 -37 24 -70 138 -334 312 -591 389
-77 23 -230 37 -325 30 -131 -10 -224 -37 -377 -111 -76 -36 -149 -65 -166
-65 -27 0 -224 27 -333 46 -44 7 -128 53 -143 76 -13 21 13 52 66 79 36 18 38
18 100 -2 108 -35 195 -13 224 56 19 46 18 75 -6 135 -27 68 -25 89 10 170 37
85 39 135 5 181 -33 46 -54 90 -48 105 2 7 27 15 54 19 62 9 109 45 109 84 0
18 -27 69 -71 137 -39 60 -84 136 -99 169 -29 65 -92 168 -122 201 -17 19 -17
23 -3 64 24 67 20 139 -11 185 -40 62 -89 93 -208 131 -238 75 -576 113 -721
80z m288 -76 c270 -26 518 -95 568 -159 19 -23 21 -34 15 -106 -4 -44 -7 -87
-7 -95 -1 -8 16 -44 37 -80 20 -36 63 -110 94 -165 31 -55 80 -136 108 -180
l52 -80 -58 -18 c-98 -32 -107 -50 -72 -150 22 -63 20 -77 -13 -77 -19 0 -17
-5 21 -41 23 -22 42 -46 42 -53 0 -7 -13 -40 -30 -72 -37 -72 -40 -145 -10
-204 34 -66 23 -110 -27 -110 -35 0 -79 26 -107 63 -34 45 -33 53 4 27 38 -27
39 -15 1 25 -16 17 -42 67 -59 115 -17 47 -38 102 -46 123 -24 54 -11 45 34
-25 58 -89 49 -56 -11 43 -89 145 -110 181 -107 185 2 1 39 -27 81 -63 43 -36
80 -63 83 -60 3 3 -33 45 -79 93 -83 88 -114 130 -103 141 3 3 34 -4 68 -15
34 -12 64 -20 66 -17 2 2 -20 16 -50 30 -78 40 -88 51 -88 102 0 88 80 119
217 84 40 -10 74 -16 77 -13 13 12 4 22 -32 41 -58 29 -139 97 -172 143 -39
54 -38 30 1 -39 27 -48 29 -54 13 -51 -10 2 -36 28 -57 58 -44 65 -60 139 -46
214 5 27 7 51 5 53 -5 6 -107 -45 -196 -98 -80 -47 -75 -47 -256 -39 -39 1
-87 -3 -107 -9 -57 -19 -98 -93 -112 -206 -9 -71 22 -164 84 -252 l50 -71 -29
-54 c-68 -122 -94 -259 -94 -478 1 -177 21 -298 83 -520 40 -141 57 -220 47
-220 -23 0 -180 91 -222 129 -74 65 -179 211 -115 158 23 -19 138 -87 146 -87
4 0 -26 35 -66 78 -76 79 -143 195 -169 291 -6 23 -14 49 -17 58 -12 32 15 3
32 -34 24 -51 153 -233 166 -233 5 0 -9 37 -32 83 -55 108 -83 193 -114 341
-39 193 -40 424 0 536 8 23 13 46 9 49 -6 7 -53 -45 -92 -104 -57 -84 -144
-205 -151 -209 -7 -4 -82 202 -138 379 -38 117 -37 260 2 365 15 41 40 98 56
126 88 157 325 306 554 349 88 17 134 17 268 5z m2343 -76 c37 -8 177 -31 312
-50 135 -19 273 -41 306 -50 90 -23 181 -72 240 -128 75 -72 216 -269 203
-282 -3 -3 -24 7 -48 22 -24 15 -80 44 -125 64 -45 21 -88 48 -96 59 -15 21
-15 21 -22 -10 -3 -17 -6 -42 -6 -54 0 -49 -85 -115 -150 -115 -30 0 -40 16
-20 36 11 11 60 195 60 226 0 17 -2 17 -22 4 -13 -8 -41 -19 -64 -25 -81 -22
-339 -51 -445 -51 -84 0 -111 -3 -123 -16 -22 -22 -20 -82 5 -128 11 -21 18
-41 15 -44 -8 -8 -43 26 -69 67 -20 32 -23 53 -27 191 l-5 155 -27 -80 c-74
-220 -115 -335 -121 -341 -3 -4 -16 15 -28 42 -27 64 -22 120 26 289 68 238
84 253 231 219z m-241 -4 c3 -5 -19 -54 -49 -107 -92 -165 -135 -307 -116
-388 5 -23 5 -44 0 -49 -13 -13 -70 48 -70 76 1 25 28 104 82 238 19 47 43
107 52 133 29 77 82 128 101 97z m-4831 -415 c34 -18 40 -25 125 -165 73 -120
111 -196 111 -224 0 -25 -41 -116 -52 -116 -4 0 -8 6 -8 13 0 36 -27 95 -78
174 -32 48 -67 107 -77 131 -27 59 -36 52 -19 -15 36 -146 41 -304 9 -304 -5
0 -19 27 -30 60 -28 83 -32 86 -96 66 -54 -16 -270 -34 -258 -21 4 4 47 9 95
12 49 4 96 10 104 16 10 6 -24 7 -98 3 -120 -7 -249 6 -319 32 -23 8 -47 13
-55 10 -24 -9 85 -50 155 -57 37 -4 70 -10 73 -13 6 -5 -202 -19 -297 -20
l-67 0 9 -29 c8 -29 64 -132 95 -175 l16 -23 -52 0 c-47 0 -56 4 -91 39 -24
24 -39 48 -39 63 0 38 -8 38 -48 -1 -86 -82 -213 -193 -217 -189 -7 7 62 173
108 263 92 178 190 235 657 390 80 27 168 59 195 72 58 27 108 29 149 8z m186
-17 c24 -38 186 -320 207 -360 13 -25 12 -30 -4 -52 -24 -34 -30 -32 -38 12
-16 88 -113 261 -211 376 -42 49 -42 56 -4 56 23 0 35 -8 50 -32z m2581 -31
c46 -20 67 -38 108 -93 28 -37 54 -77 57 -89 3 -12 -6 -47 -20 -80 -15 -32
-29 -82 -32 -111 l-7 -54 -27 53 c-19 35 -35 53 -50 55 -19 3 -21 0 -15 -20
14 -45 24 -55 25 -24 0 16 3 27 6 23 7 -6 74 -330 69 -335 -4 -5 -44 100 -56
151 l-11 47 -48 0 c-42 0 -53 5 -82 33 -89 90 -138 197 -139 303 -1 66 14 105
53 140 45 41 79 41 169 1z m3274 -237 c75 -72 105 -93 105 -73 0 3 -12 21 -26
40 -14 19 -24 36 -22 38 5 6 146 -94 236 -167 39 -33 72 -55 72 -50 0 14 -122
119 -233 201 -54 40 -96 75 -94 78 10 9 153 -69 207 -113 99 -81 260 -247 330
-339 199 -265 347 -522 422 -734 33 -92 42 -203 25 -321 l-7 -55 19 23 c11 12
22 40 26 62 4 22 10 40 13 40 16 0 84 -186 117 -320 22 -90 42 -260 31 -260
-3 0 -17 11 -32 25 -32 30 -83 41 -123 27 -16 -6 -32 -8 -35 -5 -3 3 -3 40 -1
82 13 224 14 251 4 246 -5 -4 -23 -33 -39 -66 -17 -32 -33 -59 -36 -59 -4 0
-3 29 1 65 3 36 3 65 -2 65 -5 0 -26 -38 -47 -85 -36 -80 -67 -126 -51 -75 8
27 -2 90 -15 90 -6 0 -10 -12 -10 -27 0 -37 -79 -336 -92 -348 -7 -7 -9 -1 -4
18 28 117 58 388 59 532 1 143 -2 170 -25 256 -32 116 -96 246 -177 358 -34
46 -61 87 -61 91 0 14 -141 204 -215 290 -112 128 -181 217 -215 275 -16 28
-70 99 -120 158 -49 60 -90 111 -90 113 0 17 33 -7 105 -76z m-44 -80 c51 -58
99 -108 106 -113 6 -4 40 -44 76 -90 35 -45 75 -91 87 -102 43 -38 223 -288
289 -400 30 -51 103 -255 92 -255 -5 0 -38 34 -72 75 -35 41 -66 75 -70 75 -4
0 10 -53 31 -117 40 -124 64 -252 58 -317 l-3 -38 -35 68 -35 69 -3 -79 -3
-79 -28 44 c-15 24 -51 88 -80 142 -29 55 -79 135 -110 179 -95 135 -221 336
-221 353 0 4 -27 65 -48 110 -11 22 17 -12 50 -63 39 -58 138 -166 145 -158 3
3 -10 27 -29 53 -51 72 -104 171 -127 238 -23 68 -61 213 -61 229 1 10 39 -66
81 -163 32 -72 31 -41 -3 65 -43 139 -57 170 -105 240 -66 98 -95 147 -86 143
5 -2 52 -51 104 -109z m-6982 -534 c-27 -51 -58 -119 -69 -151 -34 -97 -87
-197 -140 -262 -81 -100 -156 -227 -176 -298 -17 -67 -13 -101 6 -49 14 37 51
96 56 91 3 -2 -9 -42 -26 -88 -117 -316 -134 -383 -146 -549 -9 -142 31 -435
87 -625 11 -38 22 -79 25 -90 3 -11 -10 7 -29 40 -114 198 -180 295 -192 283
-4 -4 0 -28 9 -54 24 -70 20 -82 -13 -38 -30 41 -101 112 -101 102 0 -4 5 -19
11 -35 6 -15 15 -64 20 -108 4 -44 11 -103 15 -131 l6 -50 -58 4 c-51 3 -64 0
-97 -22 l-37 -25 0 87 c0 89 34 308 68 441 l19 75 22 -50 c52 -116 84 -124 44
-11 -31 89 -41 229 -23 319 46 235 226 689 340 858 114 171 133 192 235 270
50 38 110 89 135 114 24 25 47 46 51 46 4 0 -15 -42 -42 -94z m113 -3 c-22
-43 -55 -106 -74 -141 -31 -59 -32 -64 -15 -76 24 -18 22 -61 -8 -153 -14 -42
-24 -81 -22 -86 4 -13 77 163 77 186 0 9 4 17 8 17 13 0 2 -240 -15 -305 -8
-33 -28 -90 -44 -128 -17 -37 -27 -72 -24 -78 8 -11 74 86 123 181 27 53 32
59 26 30 -14 -72 -85 -250 -157 -395 -42 -82 -94 -195 -117 -250 -23 -55 -51
-120 -63 -145 l-20 -45 -7 30 c-4 17 -9 48 -10 70 -1 22 -4 31 -7 20 -9 -39
-36 -105 -43 -105 -4 0 -10 47 -14 104 -9 130 4 209 49 299 19 37 31 67 27 67
-4 0 -43 -36 -87 -80 -44 -44 -83 -80 -87 -80 -4 0 -3 12 2 28 4 15 20 77 34
138 41 174 129 432 162 473 39 48 78 110 110 174 49 97 222 343 233 331 2 -2
-14 -39 -37 -81z m7006 -235 c26 -29 60 -66 75 -82 89 -96 156 -231 187 -379
22 -102 37 -237 26 -237 -10 0 -153 146 -203 208 -54 66 -97 150 -117 228 -17
65 -34 314 -22 314 5 0 29 -23 54 -52z m-4144 -5 c-14 -106 -71 -228 -143
-306 -24 -26 -209 -147 -225 -147 -3 0 9 31 28 69 25 49 67 102 150 190 63 67
132 149 152 181 20 33 38 60 40 60 2 0 1 -21 -2 -47z m1086 -150 l21 -56 -21
-50 c-24 -56 -21 -66 12 -43 27 19 38 20 38 3 0 -25 -76 -85 -157 -126 -82
-41 -83 -41 -83 -18 0 13 34 90 75 172 41 82 75 155 75 162 0 31 20 8 40 -44z
m1305 41 c103 -15 318 -95 391 -145 23 -16 58 -51 78 -78 45 -60 106 -190 113
-240 l5 -36 -79 78 c-84 82 -116 103 -61 38 36 -43 82 -126 76 -140 -2 -5 -46
27 -98 71 -52 44 -129 106 -170 139 -41 32 -90 72 -109 88 -34 31 -41 35 -41
26 0 -3 43 -51 95 -107 86 -93 139 -177 122 -194 -3 -3 -78 34 -167 82 -319
170 -457 226 -672 269 -49 10 -88 21 -88 25 0 11 172 85 245 106 110 31 228
37 360 18z m-1086 -149 c82 -15 213 -32 461 -60 160 -18 208 -27 300 -60 169
-61 305 -146 433 -270 77 -75 92 -99 46 -75 -35 19 -212 80 -217 75 -3 -3 21
-16 54 -30 205 -89 227 -101 250 -130 13 -17 25 -42 26 -55 3 -22 -3 -25 -79
-39 -45 -9 -85 -19 -89 -23 -4 -5 22 -8 57 -9 35 0 73 -4 84 -8 18 -7 17 -10
-14 -29 -19 -12 -72 -38 -118 -58 -46 -21 -83 -41 -83 -45 0 -8 136 37 155 52
6 4 34 17 64 28 l53 22 -6 -28 c-4 -15 -21 -57 -39 -93 -31 -63 -34 -65 -77
-72 -128 -21 -176 -31 -190 -40 -10 -6 0 -7 30 -3 109 14 160 17 160 10 0 -20
-344 -439 -420 -513 -53 -51 -153 -112 -184 -112 -41 0 -115 23 -141 45 l-30
24 53 46 c39 35 52 53 52 75 0 30 57 90 85 90 8 0 15 4 15 9 0 13 -121 7 -149
-8 -13 -7 -42 -19 -65 -26 l-41 -13 41 -1 c31 -1 47 -8 68 -30 16 -17 26 -36
23 -44 -6 -17 -131 -37 -197 -31 -25 2 -71 6 -102 9 -32 2 -74 11 -93 19 -46
19 -187 125 -180 136 3 4 27 8 54 8 60 0 151 20 151 34 0 5 -4 7 -9 4 -5 -3
-41 -10 -82 -16 -60 -9 -81 -8 -120 5 -69 23 -79 40 -37 61 57 30 229 85 335
107 57 12 103 24 103 27 0 3 -82 -3 -182 -14 l-183 -19 -60 24 c-45 18 -60 29
-60 44 0 17 21 27 120 61 150 52 225 83 203 83 -9 1 -59 -13 -110 -29 -51 -17
-121 -36 -156 -42 -84 -16 -94 -2 -44 59 42 50 104 88 207 129 68 26 100 44
79 44 -6 0 -57 -16 -114 -35 -103 -35 -236 -57 -229 -38 7 17 83 80 133 109
28 15 86 43 130 62 64 26 72 31 41 26 -22 -3 -74 -17 -115 -30 -103 -34 -178
-41 -217 -21 -30 16 -83 71 -83 87 0 4 29 23 64 41 36 19 63 35 62 37 -2 1
-34 -9 -72 -23 -67 -25 -158 -36 -182 -21 -9 5 4 22 39 54 117 105 187 149
316 201 26 10 83 33 127 50 120 48 232 59 397 38 74 -9 135 -14 138 -12 9 9
-98 47 -169 60 -41 8 -138 19 -215 25 -142 11 -242 32 -327 69 -45 19 -69 48
-30 37 9 -3 55 -12 101 -21z m2456 -167 c111 -25 240 -93 296 -156 44 -51 91
-130 118 -202 l19 -50 -26 0 c-15 0 -47 6 -72 14 -64 19 -196 30 -205 17 -3
-7 3 -11 16 -11 12 0 59 -8 105 -17 83 -17 110 -33 57 -33 -16 0 -93 -23 -173
-52 -140 -49 -149 -51 -250 -51 -125 0 -207 21 -325 82 l-80 41 110 -6 c137
-8 355 15 355 37 0 5 -112 9 -269 9 -303 0 -361 5 -361 29 0 41 45 205 64 233
11 17 48 46 81 65 149 83 325 100 540 51z m-4441 7 c74 -19 199 -84 251 -131
l40 -35 -35 8 c-44 10 -111 8 -225 -8 -112 -15 -147 -32 -48 -23 81 7 223 -3
223 -16 0 -5 -60 -39 -132 -75 -73 -36 -173 -92 -223 -125 -90 -58 -135 -79
-135 -63 0 5 15 20 33 33 51 38 137 114 137 123 0 11 -34 -8 -130 -75 -102
-70 -333 -208 -339 -203 -2 3 16 26 40 53 24 26 66 74 93 106 43 50 132 127
221 189 14 11 24 21 22 24 -3 2 -48 -22 -102 -54 -101 -61 -192 -143 -310
-279 -72 -83 -167 -163 -173 -145 -9 28 90 171 199 286 40 41 70 78 67 81 -3
2 -61 -49 -129 -114 -160 -153 -195 -172 -183 -99 29 174 276 434 489 514 116
44 246 55 349 28z m-2125 -180 c15 -102 13 -273 -3 -367 -10 -51 -32 -114 -67
-188 -48 -101 -54 -109 -69 -95 -23 21 -25 20 -26 -23 -1 -21 -11 -60 -24 -88
-20 -45 -23 -47 -31 -27 -14 37 -27 303 -18 388 9 94 31 180 64 253 25 55 142
222 155 222 4 0 13 -34 19 -75z m2939 -41 c84 -24 163 -60 215 -96 16 -11 30
-18 33 -15 10 10 -73 80 -128 108 -32 16 -58 32 -58 34 0 11 202 -26 266 -48
65 -24 165 -76 226 -121 56 -40 75 -65 41 -52 -25 10 -103 20 -103 13 0 -3 30
-15 68 -28 82 -27 142 -63 142 -87 0 -9 3 -26 6 -38 6 -21 4 -21 -118 -18
-138 4 -137 1 6 -20 54 -8 104 -20 111 -28 7 -7 16 -34 19 -59 l7 -46 -98 3
c-105 4 -99 -9 9 -21 64 -7 93 -26 102 -67 7 -32 -10 -46 -131 -104 -45 -21
-82 -43 -83 -47 0 -12 31 -1 130 43 l85 38 9 -38 c15 -66 1 -102 -60 -160 -30
-29 -53 -54 -50 -57 2 -3 25 9 50 26 24 17 48 31 51 31 13 0 -7 -85 -31 -131
-13 -26 -40 -61 -61 -78 -74 -62 -220 -120 -303 -121 -28 -1 -31 -3 -18 -10 9
-6 76 -13 150 -16 122 -6 138 -4 191 16 33 12 82 41 110 64 72 58 77 61 77 39
0 -27 -111 -137 -173 -173 -52 -30 -146 -61 -287 -96 -60 -15 -110 -19 -255
-18 -197 2 -296 12 -454 50 -92 22 -153 43 -127 44 5 0 81 -9 170 -21 186 -24
305 -22 406 10 36 11 84 25 108 31 69 18 48 26 -45 17 -97 -9 -300 -1 -378 15
-27 5 -72 18 -100 27 -27 10 -67 21 -87 25 -35 6 -54 26 -25 26 36 0 192 22
203 28 7 4 -56 7 -139 7 -158 0 -247 9 -247 26 0 5 19 9 43 10 36 1 38 2 17 9
-14 4 -40 8 -58 9 -47 1 -313 94 -301 105 2 2 31 0 65 -5 33 -4 89 -5 125 -1
l64 8 -60 8 c-104 13 -205 36 -263 60 -32 13 -66 27 -77 31 -19 7 -19 8 5 15
14 5 86 9 160 10 163 2 132 14 -65 25 -74 4 -135 10 -134 14 0 5 47 29 312
156 74 36 101 55 77 55 -5 0 -29 -9 -53 -19 -23 -11 -60 -25 -82 -31 -22 -7
-44 -16 -50 -20 -14 -10 -105 -40 -122 -40 -32 0 -6 22 80 68 50 27 124 63
162 79 39 17 100 43 137 59 81 34 81 45 1 16 -115 -41 -306 -92 -293 -79 3 3
43 30 90 62 161 108 288 160 459 189 52 9 97 18 99 21 8 8 -104 6 -233 -5
-135 -12 -251 -33 -331 -60 -84 -29 -252 -113 -327 -163 -37 -25 -67 -42 -67
-38 0 19 59 93 105 130 67 55 164 101 328 156 184 62 322 79 577 72 200 -5
204 -1 32 35 -154 32 -429 32 -551 0 -46 -12 -89 -22 -95 -22 -18 1 59 39 136
66 40 15 114 46 164 70 159 77 315 88 492 38z m-2065 -244 c175 -35 221 -69
272 -197 36 -90 36 -94 -10 -110 -46 -16 -189 -43 -430 -79 -195 -29 -224 -39
-145 -49 69 -8 360 26 423 50 37 15 14 -14 -43 -54 -78 -55 -192 -107 -274
-126 -71 -17 -151 -11 -311 19 -44 9 -108 16 -142 16 -35 0 -63 3 -63 8 1 4
42 26 93 49 51 24 91 46 89 50 -5 12 -29 5 -117 -32 -44 -18 -93 -37 -109 -41
l-29 -7 7 47 c14 91 55 157 160 256 74 70 135 113 216 155 56 28 87 37 195 59
49 9 124 4 218 -14z m6072 -227 c85 -27 205 -128 205 -173 0 -16 -6 -18 -52
-15 -29 3 -120 7 -203 9 -105 4 -198 14 -310 35 -275 51 -284 70 -32 72 92 0
167 3 167 5 0 7 -131 44 -195 55 -36 6 -65 15 -65 20 0 9 244 18 360 12 41 -2
98 -11 125 -20z m-316 -243 c135 -22 299 -49 364 -60 64 -11 128 -20 142 -20
14 0 25 -2 25 -4 0 -7 -93 -130 -144 -190 -80 -97 -222 -177 -364 -205 -71
-15 -185 -14 -252 2 -97 23 -97 25 -22 88 37 31 89 71 116 90 27 18 66 48 85
68 l36 34 -75 -7 c-288 -26 -354 -19 -505 53 l-80 39 170 -6 c94 -2 167 -2
163 2 -3 4 -30 9 -60 12 -148 12 -301 40 -336 63 -8 4 49 10 133 14 86 3 152
10 158 16 8 8 3 11 -20 11 -43 0 -93 11 -93 21 0 9 68 14 219 17 69 1 158 -9
340 -38z m-6009 -227 c0 -5 -47 -27 -103 -49 -237 -96 -260 -110 -119 -75 83
21 320 56 328 48 7 -7 -84 -63 -158 -96 -94 -42 -236 -79 -390 -101 -73 -10
-152 -22 -175 -25 -39 -7 -41 -6 -36 13 8 32 108 148 155 180 60 41 92 50 242
68 72 9 156 22 186 29 68 17 70 17 70 8z m3440 -155 c86 -24 246 -50 290 -46
31 3 24 7 -57 33 -51 16 -93 33 -93 38 0 9 193 -1 222 -12 31 -11 159 -144
149 -154 -5 -5 -52 -12 -103 -15 -102 -5 -233 15 -322 49 -59 22 -168 93 -185
121 -11 18 -10 19 11 12 13 -4 52 -16 88 -26z m-3010 -22 c0 -7 -12 -16 -27
-20 -16 -3 -50 -13 -78 -20 -47 -14 -48 -15 -16 -15 43 -1 145 16 245 40 43
11 81 17 84 14 10 -10 -266 -134 -334 -150 -38 -9 -82 -20 -99 -25 l-30 -8 33
-1 c18 -1 54 4 80 9 138 30 230 55 254 67 44 21 44 15 3 -28 -127 -131 -294
-197 -563 -220 -78 -7 -139 -16 -135 -20 5 -3 60 -23 123 -43 63 -21 144 -48
180 -61 l65 -24 -68 -31 c-82 -39 -159 -47 -275 -30 -206 30 -286 66 -437 196
-104 90 -118 105 -88 98 23 -6 113 22 442 135 215 74 291 96 410 116 80 13
162 26 181 28 19 2 38 5 43 5 4 1 7 -4 7 -12z m4446 -213 c-10 -121 -25 -204
-45 -249 -25 -55 -177 -259 -229 -306 -48 -43 -118 -82 -126 -69 -4 5 10 29
30 53 84 99 161 233 184 318 7 25 12 77 11 117 l-1 72 41 22 c23 11 62 43 88
69 25 27 48 49 50 50 2 0 1 -35 -3 -77z m-843 -144 c67 -27 101 -54 141 -114
42 -64 66 -141 66 -214 0 -74 -12 -113 -60 -195 -22 -37 -40 -70 -40 -72 0 -2
11 -4 24 -4 24 0 86 51 86 71 0 5 5 9 10 9 25 0 -2 -366 -34 -474 -20 -64 -74
-145 -130 -192 -25 -21 -43 -41 -40 -46 8 -13 101 42 145 86 22 21 41 37 43
35 6 -7 54 -172 65 -225 5 -28 13 -109 17 -180 5 -105 3 -141 -11 -193 -19
-74 -72 -183 -110 -226 -31 -35 -32 -43 12 120 26 94 28 113 28 307 0 163 -3
210 -14 220 -11 11 -12 5 -7 -40 6 -49 4 -57 -41 -138 -51 -91 -135 -180 -222
-235 -47 -31 -41 -40 10 -14 50 27 170 136 200 183 16 25 29 39 29 30 0 -44
-33 -167 -55 -205 -29 -48 -118 -127 -223 -197 -76 -50 -99 -72 -60 -57 47 19
174 84 201 103 62 45 29 7 -99 -112 -74 -69 -152 -139 -172 -157 -49 -43 -22
-43 50 0 51 31 131 93 236 183 79 68 52 29 -61 -89 -122 -127 -165 -154 -261
-164 -69 -7 -117 10 -156 53 -36 42 -37 53 -5 207 14 66 32 177 40 246 30 256
61 313 198 360 80 28 133 57 157 88 19 24 22 37 17 95 -5 81 -32 129 -96 169
-39 25 -55 29 -117 29 -81 0 -164 -15 -208 -37 l-29 -15 7 49 c8 55 53 157 91
207 31 41 90 83 136 97 19 5 69 10 112 10 l77 0 25 37 c20 30 65 141 65 160 0
2 -10 -3 -23 -11 -82 -54 -167 -46 -270 23 -39 27 -85 52 -101 56 -66 14 -104
-45 -92 -144 6 -54 6 -55 -12 -39 -11 10 -29 52 -42 94 -29 96 -33 268 -8 324
24 56 73 104 128 128 99 43 287 47 383 10z m-2754 -70 c20 -44 52 -91 82 -121
27 -27 49 -50 49 -52 0 -8 -159 26 -215 45 -69 24 -138 65 -133 80 3 9 164
116 178 118 3 1 20 -31 39 -70z m1855 -50 c37 -91 76 -315 76 -430 0 -138 -34
-216 -105 -239 -44 -15 -80 3 -132 66 -70 84 -150 114 -253 94 -100 -19 -162
-85 -176 -187 -11 -82 -12 -83 -50 -83 -116 0 -164 95 -135 266 31 178 157
344 323 423 79 37 300 101 353 101 11 0 31 7 45 14 36 20 36 20 54 -25z
m-1958 -171 c43 -25 181 -68 220 -68 34 0 44 -13 44 -59 0 -36 41 -117 87
-171 33 -38 169 -156 233 -203 l25 -18 -50 7 c-70 8 -164 46 -276 109 -159 90
-242 178 -324 342 -53 107 -56 122 -18 98 14 -10 41 -26 59 -37z m1059 -330
c-4 -13 -9 -62 -12 -109 -6 -94 8 -154 53 -238 27 -49 25 -64 -5 -37 -68 62
-107 172 -91 258 13 66 42 148 54 148 4 0 5 -10 1 -22z m877 -315 c63 -36 138
-237 110 -297 -14 -32 -10 -31 -280 -49 -248 -18 -289 -13 -354 37 -107 81
-73 182 87 257 55 26 175 61 250 72 59 10 154 0 187 -20z m-480 -553 c115 -40
165 -49 338 -60 80 -5 161 -14 182 -20 66 -19 142 -108 208 -244 65 -135 80
-180 80 -247 0 -68 -27 -99 -88 -99 -92 0 -291 74 -420 156 -62 40 -145 115
-204 186 l-39 48 43 -20 c24 -10 64 -22 88 -25 41 -6 36 -2 -65 50 -60 31
-119 64 -129 73 -20 18 -116 208 -116 231 0 8 6 11 18 7 9 -3 56 -19 104 -36z
m1916 -623 c6 -7 20 -55 32 -107 12 -52 30 -126 42 -163 11 -37 19 -70 17 -71
-13 -12 -348 -10 -366 2 -10 6 -8 17 6 47 11 22 22 66 26 97 l6 57 -77 -79
c-80 -83 -108 -98 -58 -33 132 176 326 306 372 250z"/>
    </g>
</svg>
